<svg xmlns="http://www.w3.org/2000/svg" xmlns:xlink="http://www.w3.org/1999/xlink" version="1.1" width="1000" height="1000" viewBox="0 0 1000 1000" xml:space="preserve">
<desc>Created with Fabric.js 3.5.0</desc>
<defs>
</defs>
<rect x="0" y="0" width="100%" height="100%" fill="rgba(255,255,255,0)"/>
<g transform="matrix(1.0564 0 0 1.0564 249.5058 649.9391)" id="185202">
<g style="" vector-effect="non-scaling-stroke">
		<g transform="matrix(1 0 0 1 8.225 145.8391)" id="Layer_1">
<path style="stroke: none; stroke-width: 1; stroke-dasharray: none; stroke-linecap: butt; stroke-dashoffset: 0; stroke-linejoin: miter; stroke-miterlimit: 4; is-custom-font: none; font-file-url: none; fill: rgb(0,0,0); fill-rule: nonzero; opacity: 1;" transform=" translate(-264.7, -402.1791)" d="M 183.22 398.72 c 21.44 -6.11 45.36 -4.25 66.26 3.65 c 7 2.51 13.76 5.3 20.58 7.34 c 27.6 9 58.49 -1.83 76.12 -24.92 c -4.85 10.06 -13.14 18.63 -22.65 24.58 a 66.66 66.66 0 0 1 -38.45 10.13 c -13.27 -0.5 -26 -6.16 -37.94 -10.94 a 136.39 136.39 0 0 0 -63.92 -9.84 Z" stroke-linecap="round"/>
</g>
		<g transform="matrix(1 0 0 1 111.5 151.9134)" id="Layer_1">
<path style="stroke: none; stroke-width: 1; stroke-dasharray: none; stroke-linecap: butt; stroke-dashoffset: 0; stroke-linejoin: miter; stroke-miterlimit: 4; is-custom-font: none; font-file-url: none; fill: rgb(0,0,0); fill-rule: nonzero; opacity: 1;" transform=" translate(-367.975, -408.2534)" d="M 268.61 414.67 C 328.26 432.1 385.36 379.1 445 398.78 a 62.2 62.2 0 0 1 22.34 13 a 72.24 72.24 0 0 0 -23.28 -9.7 c -42.62 -9.71 -82.76 14.18 -124.49 19.15 c -17.12 2.06 -35.27 1.14 -50.95 -6.56 Z" stroke-linecap="round"/>
</g>
		<g transform="matrix(1 0 0 1 134.99 172.4068)" id="Layer_1">
<path style="stroke: none; stroke-width: 1; stroke-dasharray: none; stroke-linecap: butt; stroke-dashoffset: 0; stroke-linejoin: miter; stroke-miterlimit: 4; is-custom-font: none; font-file-url: none; fill: rgb(0,0,0); fill-rule: nonzero; opacity: 1;" transform=" translate(-391.465, -428.7468)" d="M 350.4 412.51 c 15.29 -3 31.88 1.94 43.87 11.87 c 6 5 11 10.51 17.26 14.16 a 51 51 0 0 0 21 6.85 A 38.81 38.81 0 0 1 409.68 442 c -7.09 -3.27 -12.74 -9 -18.58 -13.76 c -11.47 -9.51 -25.74 -14.64 -40.7 -15.74 Z" stroke-linecap="round"/>
</g>
		<g transform="matrix(1 0 0 1 -99.115 150.5618)" id="Layer_1">
<path style="stroke: none; stroke-width: 1; stroke-dasharray: none; stroke-linecap: butt; stroke-dashoffset: 0; stroke-linejoin: miter; stroke-miterlimit: 4; is-custom-font: none; font-file-url: none; fill: rgb(0,0,0); fill-rule: nonzero; opacity: 1;" transform=" translate(-157.36, -406.9018)" d="M 58 413.33 c 59.65 17.42 116.75 -35.58 176.38 -15.9 a 62.2 62.2 0 0 1 22.34 13 a 72.46 72.46 0 0 0 -23.28 -9.7 c -42.62 -9.71 -82.76 14.18 -124.49 19.15 C 91.78 421.94 73.63 421 58 413.33 Z" stroke-linecap="round"/>
</g>
		<g transform="matrix(1 0 0 1 -142.825 152.745)" id="Layer_1">
<path style="stroke: none; stroke-width: 1; stroke-dasharray: none; stroke-linecap: butt; stroke-dashoffset: 0; stroke-linejoin: miter; stroke-miterlimit: 4; is-custom-font: none; font-file-url: none; fill: rgb(0,0,0); fill-rule: nonzero; opacity: 1;" transform=" translate(-113.65, -409.085)" d="M 193 430.36 c -7.56 -13.1 -23.56 -17.9 -37.89 -17.76 c -22.39 0.49 -43.54 11.61 -66.19 10 c -22.35 -1.29 -46 -13.18 -54.62 -34.79 C 45.76 409.39 71 419.57 94.51 418.92 c 18.61 -0.68 36.22 -8.18 54.86 -9.36 c 16.51 -0.95 36.32 4.53 43.58 20.8 Z" stroke-linecap="round"/>
</g>
		<g transform="matrix(1 0 0 1 -176.4356 -0.8)" id="Layer_1">
<path style="stroke: none; stroke-width: 1; stroke-dasharray: none; stroke-linecap: butt; stroke-dashoffset: 0; stroke-linejoin: miter; stroke-miterlimit: 4; is-custom-font: none; font-file-url: none; fill: rgb(0,0,0); fill-rule: nonzero; opacity: 1;" transform=" translate(-80.0394, -255.54)" d="M 80.47 336.78 c -6.72 -21.26 -5.56 -45.22 1.72 -66.34 c 2.3 -7.07 4.9 -13.91 6.74 -20.79 c 8.21 -27.84 -3.54 -58.41 -27.13 -75.35 c 10.19 4.55 19 12.58 25.23 21.91 a 66.66 66.66 0 0 1 11.24 38.14 c -0.11 13.28 -5.4 26.16 -9.82 38.25 a 136.39 136.39 0 0 0 -8 64.18 Z" stroke-linecap="round"/>
</g>
		<g transform="matrix(1 0 0 1 -171.6326 -104.64)" id="Layer_1">
<path style="stroke: none; stroke-width: 1; stroke-dasharray: none; stroke-linecap: butt; stroke-dashoffset: 0; stroke-linejoin: miter; stroke-miterlimit: 4; is-custom-font: none; font-file-url: none; fill: rgb(0,0,0); fill-rule: nonzero; opacity: 1;" transform=" translate(-84.8424, -151.7)" d="M 93.93 251 c 15.68 -60.14 -39 -115.67 -21 -175.84 A 62.27 62.27 0 0 1 85.24 52.4 a 72.58 72.58 0 0 0 -9 23.56 C 67.77 118.84 92.81 158.27 99 199.84 c 2.56 17 2.17 35.22 -5.07 51.12 Z" stroke-linecap="round"/>
</g>
		<g transform="matrix(1 0 0 1 -152.1017 -128.58)" id="Layer_1">
<path style="stroke: none; stroke-width: 1; stroke-dasharray: none; stroke-linecap: butt; stroke-dashoffset: 0; stroke-linejoin: miter; stroke-miterlimit: 4; is-custom-font: none; font-file-url: none; fill: rgb(0,0,0); fill-rule: nonzero; opacity: 1;" transform=" translate(-104.3734, -127.76)" d="M 89.38 169.27 c -3.43 -15.19 1 -31.93 10.59 -44.2 c 4.79 -6.19 10.19 -11.31 13.65 -17.66 a 51.06 51.06 0 0 0 6.24 -21.19 a 38.71 38.71 0 0 1 -2.72 22.93 c -3 7.19 -8.58 13 -13.21 19 c -9.17 11.74 -13.88 26.16 -14.55 41.15 Z" stroke-linecap="round"/>
</g>
		<g transform="matrix(1 0 0 1 -166.8513 105.945)" id="Layer_1">
<path style="stroke: none; stroke-width: 1; stroke-dasharray: none; stroke-linecap: butt; stroke-dashoffset: 0; stroke-linejoin: miter; stroke-miterlimit: 4; is-custom-font: none; font-file-url: none; fill: rgb(0,0,0); fill-rule: nonzero; opacity: 1;" transform=" translate(-89.6237, -362.285)" d="M 98.73 461.57 c 15.67 -60.14 -39 -115.67 -21 -175.84 A 62.44 62.44 0 0 1 90 263 a 72.35 72.35 0 0 0 -9 23.56 c -8.47 42.88 16.58 82.31 22.77 123.88 c 2.55 17.05 2.16 35.22 -5.07 51.12 Z" stroke-linecap="round"/>
</g>
		<g transform="matrix(1 0 0 1 -163.565 149.725)" id="Layer_1">
<path style="stroke: none; stroke-width: 1; stroke-dasharray: none; stroke-linecap: butt; stroke-dashoffset: 0; stroke-linejoin: miter; stroke-miterlimit: 4; is-custom-font: none; font-file-url: none; fill: rgb(0,0,0); fill-rule: nonzero; opacity: 1;" transform=" translate(-92.91, -406.065)" d="M 111.82 326.13 c -12.88 7.94 -17.21 24.07 -16.65 38.39 c 1.14 22.37 12.87 43.18 12 65.87 C 106.51 452.77 95.31 476.76 74 486 c 21.18 -12.13 30.62 -37.67 29.28 -61.14 c -1.22 -18.58 -9.23 -36 -11 -54.56 c -1.44 -16.47 3.47 -36.44 19.52 -44.17 Z" stroke-linecap="round"/>
</g>
		<g transform="matrix(1 0 0 1 -30.1874 109.669)" id="Layer_1">
<path style="stroke: none; stroke-width: 1; stroke-dasharray: none; stroke-linecap: butt; stroke-dashoffset: 0; stroke-linejoin: miter; stroke-miterlimit: 4; is-custom-font: none; font-file-url: none; fill: rgb(0,0,0); fill-rule: nonzero; opacity: 1;" transform=" translate(-226.2877, -366.009)" d="M 241.87 340.22 c -0.21 6.91 -0.66 13 -0.54 19.12 c 0.36 19 -7.62 30.88 -22 32.35 c -7.2 0.73 -9.39 -2.16 -8.4 -11.08 a 17.7 17.7 0 0 0 0.41 -3.66 c -1.41 -14.84 4.45 -22.44 14.24 -26.93 C 231.4 347.33 236.82 343.3 241.87 340.22 Z" stroke-linecap="round"/>
</g>
		<g transform="matrix(1 0 0 1 -43.2706 193.7139)" id="Layer_1">
<path style="stroke: none; stroke-width: 1; stroke-dasharray: none; stroke-linecap: butt; stroke-dashoffset: 0; stroke-linejoin: miter; stroke-miterlimit: 4; is-custom-font: none; font-file-url: none; fill: rgb(0,0,0); fill-rule: nonzero; opacity: 1;" transform=" translate(-213.2044, -450.0539)" d="M 232.15 473.1 c -10 -4.07 -19.53 -7.62 -28.58 -11.75 c -3.34 -1.53 -7.41 -3.83 -8 -6.77 c -1.46 -7.26 -1.48 -15.05 -1.11 -22.77 c 0.06 -1.16 5.35 -4.13 8.11 -4.51 c 14 -1.92 25.86 5.84 28.15 16.89 c 1.19 5.75 2.16 11.09 -0.41 17.61 C 229 465 231.29 468.64 232.15 473.1 Z" stroke-linecap="round"/>
</g>
		<g transform="matrix(1 0 0 1 196.391 118.9642)" id="Layer_1">
<path style="stroke: none; stroke-width: 1; stroke-dasharray: none; stroke-linecap: butt; stroke-dashoffset: 0; stroke-linejoin: miter; stroke-miterlimit: 4; is-custom-font: none; font-file-url: none; fill: rgb(0,0,0); fill-rule: nonzero; opacity: 1;" transform=" translate(-452.866, -375.3042)" d="M 467.68 357.33 c -1.49 7.82 -2.61 14.56 -4.1 21.31 s -15.34 15.5 -22.81 14.57 c -1.12 -0.14 -2.85 -1.11 -2.71 -1.69 c 1.66 -6.44 -1.57 -13.17 6 -19.26 a 70.32 70.32 0 0 1 6.61 -4.24 Z" stroke-linecap="round"/>
</g>
		<g transform="matrix(1 0 0 1 -102.155 121.93)" id="Layer_1">
<path style="stroke: none; stroke-width: 1; stroke-dasharray: none; stroke-linecap: butt; stroke-dashoffset: 0; stroke-linejoin: miter; stroke-miterlimit: 4; is-custom-font: none; font-file-url: none; fill: rgb(0,0,0); fill-rule: nonzero; opacity: 1;" transform=" translate(-154.32, -378.27)" d="M 154.32 378.27" stroke-linecap="round"/>
</g>
		<g transform="matrix(1 0 0 1 80.5623 178.0379)" id="Layer_1">
<path style="stroke: none; stroke-width: 1; stroke-dasharray: none; stroke-linecap: butt; stroke-dashoffset: 0; stroke-linejoin: miter; stroke-miterlimit: 4; is-custom-font: none; font-file-url: none; fill: rgb(0,0,0); fill-rule: nonzero; opacity: 1;" transform=" translate(-337.0373, -434.3779)" d="M 358.12 443.66 c -7.92 0.85 -14.7 1.72 -21.58 2.25 S 317.25 435.71 316 428.3 c -0.19 -1.12 0.24 -3.06 0.84 -3.09 c 6.64 -0.28 12.15 -5.32 20.17 0.16 a 69.17 69.17 0 0 1 6 5.1 Z" stroke-linecap="round"/>
</g>
		<g transform="matrix(1 0 0 1 171.4972 117.539)" id="Layer_1">
<path style="stroke: none; stroke-width: 1; stroke-dasharray: none; stroke-linecap: butt; stroke-dashoffset: 0; stroke-linejoin: miter; stroke-miterlimit: 4; is-custom-font: none; font-file-url: none; fill: rgb(0,0,0); fill-rule: nonzero; opacity: 1;" transform=" translate(-427.9722, -373.879)" d="M 420.39 358 c -0.29 4.07 -0.39 7.67 -0.82 11.25 c -1.33 11.15 2.65 18.58 11 20.29 c 4.18 0.85 5.64 -0.71 5.58 -6 a 11.25 11.25 0 0 1 0 -2.17 c 1.7 -8.62 -1.29 -13.43 -6.77 -16.64 C 426.11 362.82 423.17 360.14 420.39 358 Z" stroke-linecap="round"/>
</g>
		<g transform="matrix(1 0 0 1 20.6418 184.3551)" id="Layer_1">
<path style="stroke: none; stroke-width: 1; stroke-dasharray: none; stroke-linecap: butt; stroke-dashoffset: 0; stroke-linejoin: miter; stroke-miterlimit: 4; is-custom-font: none; font-file-url: none; fill: rgb(0,0,0); fill-rule: nonzero; opacity: 1;" transform=" translate(-277.1168, -440.6951)" d="M 287.75 461.33 c 0.41 -8 0.92 -14.77 1.08 -21.67 S 277.6 421 270.13 420.08 c -1.13 -0.13 -3 0.4 -3 1 c 0.07 6.65 -4.66 12.42 1.24 20.13 a 68.82 68.82 0 0 0 5.42 5.69 Z" stroke-linecap="round"/>
</g>
		<g transform="matrix(1 0 0 1 94.702 108.5963)" id="Layer_1">
<path style="stroke: none; stroke-width: 1; stroke-dasharray: none; stroke-linecap: butt; stroke-dashoffset: 0; stroke-linejoin: miter; stroke-miterlimit: 4; is-custom-font: none; font-file-url: none; fill: rgb(0,0,0); fill-rule: nonzero; opacity: 1;" transform=" translate(-351.177, -364.9363)" d="M 362.19 348.24 c 0.19 7.06 0.55 13.68 0.46 20.17 c 0 2.4 -0.35 5.44 -1.95 6.57 a 61 61 0 0 1 -13.33 6.63 c -0.71 0.28 -3.87 -2.11 -4.82 -3.66 c -4.83 -7.87 -3.29 -17 2.72 -21.27 c 3.12 -2.22 6.07 -4.2 10.64 -4.37 C 358.18 352.22 359.75 349.92 362.19 348.24 Z" stroke-linecap="round"/>
</g>
		<g transform="matrix(1 0 0 1 -56.4404 117.909)" id="Layer_1">
<path style="stroke: none; stroke-width: 1; stroke-dasharray: none; stroke-linecap: butt; stroke-dashoffset: 0; stroke-linejoin: miter; stroke-miterlimit: 4; is-custom-font: none; font-file-url: none; fill: rgb(0,0,0); fill-rule: nonzero; opacity: 1;" transform=" translate(-200.0345, -374.249)" d="M 192.44 358.37 c -0.28 4.07 -0.38 7.67 -0.81 11.25 c -1.33 11.15 2.65 18.58 11 20.29 c 4.18 0.85 5.64 -0.71 5.58 -6 a 10.51 10.51 0 0 1 0 -2.17 c 1.71 -8.62 -1.28 -13.43 -6.77 -16.64 C 198.16 363.16 195.22 360.48 192.44 358.37 Z" stroke-linecap="round"/>
</g>
		<g transform="matrix(1 0 0 1 186.4671 188.0782)" id="Layer_1">
<path style="stroke: none; stroke-width: 1; stroke-dasharray: none; stroke-linecap: butt; stroke-dashoffset: 0; stroke-linejoin: miter; stroke-miterlimit: 4; is-custom-font: none; font-file-url: none; fill: rgb(0,0,0); fill-rule: nonzero; opacity: 1;" transform=" translate(-442.942, -444.4182)" d="M 452.9 446.9 c -3.73 1.36 -7.2 2.73 -10.67 3.82 c -1.28 0.4 -3 0.77 -3.77 0.09 a 31.93 31.93 0 0 1 -5.43 -6.15 c -0.25 -0.34 0.57 -2.5 1.27 -3.29 c 3.5 -4 8.58 -4.81 11.7 -2.26 a 9.81 9.81 0 0 1 3.84 5.07 C 450.21 445.41 451.66 445.86 452.9 446.9 Z" stroke-linecap="round"/>
</g>
		<g transform="matrix(1 0 0 1 222.9477 162.2277)" id="Layer_1">
<path style="stroke: none; stroke-width: 1; stroke-dasharray: none; stroke-linecap: butt; stroke-dashoffset: 0; stroke-linejoin: miter; stroke-miterlimit: 4; is-custom-font: none; font-file-url: none; fill: rgb(0,0,0); fill-rule: nonzero; opacity: 1;" transform=" translate(-479.4226, -418.5676)" d="M 492.66 425.69 c -2.06 -2.67 -4 -4.95 -5.68 -7.41 c -5.28 -7.63 -12 -10 -18.34 -6.38 c -3.18 1.8 -3.26 3.58 -0.3 6.82 a 9 9 0 0 1 1.22 1.33 c 3.65 6.28 8.24 7.58 13.56 6.51 A 83.27 83.27 0 0 1 492.66 425.69 Z" stroke-linecap="round"/>
</g>
		<g transform="matrix(1 0 0 1 75.0238 125.2911)" id="Layer_1">
<path style="stroke: none; stroke-width: 1; stroke-dasharray: none; stroke-linecap: butt; stroke-dashoffset: 0; stroke-linejoin: miter; stroke-miterlimit: 4; is-custom-font: none; font-file-url: none; fill: rgb(0,0,0); fill-rule: nonzero; opacity: 1;" transform=" translate(-331.4988, -381.6311)" d="M 318.84 377.25 c 2.27 2.14 4.34 3.94 6.26 5.93 c 5.94 6.19 12.26 7.43 17.33 3.31 c 2.53 -2.06 2.31 -3.68 -0.85 -6.21 a 8.27 8.27 0 0 1 -1.29 -1 c -4.28 -5.18 -8.57 -5.74 -13.12 -4.06 A 71.27 71.27 0 0 1 318.84 377.25 Z" stroke-linecap="round"/>
</g>
		<g transform="matrix(1 0 0 1 108.2706 129.4174)" id="Layer_1">
<path style="stroke: none; stroke-width: 1; stroke-dasharray: none; stroke-linecap: butt; stroke-dashoffset: 0; stroke-linejoin: miter; stroke-miterlimit: 4; is-custom-font: none; font-file-url: none; fill: rgb(0,0,0); fill-rule: nonzero; opacity: 1;" transform=" translate(-364.7457, -385.7573)" d="M 383.51 385.07 c -5.54 -2.39 -10.21 -4.54 -15.09 -6.47 s -18 2.65 -21.71 7.49 c -0.56 0.73 -1 2.17 -0.53 2.32 c 4.8 1.71 7 6.45 14.94 4.49 c 2.1 -0.52 4.2 -1.43 6.3 -2.17 Z" stroke-linecap="round"/>
</g>
		<g transform="matrix(1 0 0 1 -80.0219 189.4802)" id="Layer_1">
<path style="stroke: none; stroke-width: 1; stroke-dasharray: none; stroke-linecap: butt; stroke-dashoffset: 0; stroke-linejoin: miter; stroke-miterlimit: 4; is-custom-font: none; font-file-url: none; fill: rgb(0,0,0); fill-rule: nonzero; opacity: 1;" transform=" translate(-176.4531, -445.8203)" d="M 161.29 462.26 c 4.78 -2.22 8.91 -4.33 13.24 -6.12 c 13.44 -5.56 19.43 -13.91 16.25 -22.95 c -1.59 -4.52 -4.25 -4.95 -10.22 -1.65 a 15.52 15.52 0 0 1 -2.45 1.36 c -10.81 3.66 -14.43 9.46 -14.72 16.66 C 163.22 453.87 162 458.32 161.29 462.26 Z" stroke-linecap="round"/>
</g>
		<g transform="matrix(1 0 0 1 -37.1778 153.264)" id="Layer_1">
<path style="stroke: none; stroke-width: 1; stroke-dasharray: none; stroke-linecap: butt; stroke-dashoffset: 0; stroke-linejoin: miter; stroke-miterlimit: 4; is-custom-font: none; font-file-url: none; fill: rgb(0,0,0); fill-rule: nonzero; opacity: 1;" transform=" translate(-219.2973, -409.6039)" d="M 226.69 418.42 c -0.31 -2.39 -0.69 -4.49 -0.83 -6.61 c -0.44 -6.59 -4.22 -10.63 -10.45 -11 c -3.11 -0.19 -4 0.82 -3.26 3.91 a 4.79 4.79 0 0 1 0.29 1.26 c -0.14 5.15 2.61 7.73 6.95 9.21 C 222 416.05 224.43 417.4 226.69 418.42 Z" stroke-linecap="round"/>
</g>
		<g transform="matrix(1 0 0 1 -210.0341 38.4535)" id="Layer_1">
<path style="stroke: none; stroke-width: 1; stroke-dasharray: none; stroke-linecap: butt; stroke-dashoffset: 0; stroke-linejoin: miter; stroke-miterlimit: 4; is-custom-font: none; font-file-url: none; fill: rgb(0,0,0); fill-rule: nonzero; opacity: 1;" transform=" translate(-46.4409, -294.7935)" d="M 20.29 279.86 c 6.92 0 13 0.28 19.13 0 c 19 -0.91 31.09 6.72 33 21.09 c 0.94 7.18 -1.88 9.45 -10.83 8.72 a 18.32 18.32 0 0 0 -3.67 -0.31 c -14.78 1.85 -22.56 -3.79 -27.33 -13.45 C 27.7 290.11 23.52 284.81 20.29 279.86 Z" stroke-linecap="round"/>
</g>
		<g transform="matrix(1 0 0 1 -125.7546 48.8219)" id="Layer_1">
<path style="stroke: none; stroke-width: 1; stroke-dasharray: none; stroke-linecap: butt; stroke-dashoffset: 0; stroke-linejoin: miter; stroke-miterlimit: 4; is-custom-font: none; font-file-url: none; fill: rgb(0,0,0); fill-rule: nonzero; opacity: 1;" transform=" translate(-130.7204, -305.1619)" d="M 153.39 285.7 c -3.77 10.14 -7 19.74 -10.91 28.91 c -1.42 3.38 -3.61 7.52 -6.53 8.2 c -7.22 1.68 -15 1.92 -22.72 1.78 c -1.17 0 -4.29 -5.23 -4.75 -8 c -2.33 -13.93 5.08 -26 16.06 -28.63 c 5.71 -1.36 11 -2.48 17.62 -0.1 C 145.42 289.06 149 286.69 153.39 285.7 Z" stroke-linecap="round"/>
</g>
		<g transform="matrix(1 0 0 1 -207.3206 -188.3866)" id="Layer_1">
<path style="stroke: none; stroke-width: 1; stroke-dasharray: none; stroke-linecap: butt; stroke-dashoffset: 0; stroke-linejoin: miter; stroke-miterlimit: 4; is-custom-font: none; font-file-url: none; fill: rgb(0,0,0); fill-rule: nonzero; opacity: 1;" transform=" translate(-49.1544, -67.9534)" d="M 30.81 53.65 c 7.86 1.26 14.63 2.18 21.41 3.47 S 68.17 72 67.46 79.49 c -0.1 1.13 -1 2.89 -1.61 2.76 c -6.48 -1.46 -13.12 2 -19.43 -5.42 A 68.55 68.55 0 0 1 42 70.34 C 38.39 65 34.8 59.61 30.81 53.65 Z" stroke-linecap="round"/>
</g>
		<g transform="matrix(1 0 0 1 -195.605 109.92)" id="Layer_1">
<path style="stroke: none; stroke-width: 1; stroke-dasharray: none; stroke-linecap: butt; stroke-dashoffset: 0; stroke-linejoin: miter; stroke-miterlimit: 4; is-custom-font: none; font-file-url: none; fill: rgb(0,0,0); fill-rule: nonzero; opacity: 1;" transform=" translate(-60.87, -366.26)" d="M 60.87 366.26" stroke-linecap="round"/>
</g>
		<g transform="matrix(1 0 0 1 -144.7077 -74.383)" id="Layer_1">
<path style="stroke: none; stroke-width: 1; stroke-dasharray: none; stroke-linecap: butt; stroke-dashoffset: 0; stroke-linejoin: miter; stroke-miterlimit: 4; is-custom-font: none; font-file-url: none; fill: rgb(0,0,0); fill-rule: nonzero; opacity: 1;" transform=" translate(-111.7673, -181.957)" d="M 120.3 160.64 c 1.07 7.9 2.15 14.64 2.88 21.51 s -9.64 19.57 -17 21.06 c -1.11 0.22 -3.06 -0.15 -3.11 -0.75 c -0.47 -6.63 -5.67 -12 -0.43 -20.16 a 68.76 68.76 0 0 1 4.93 -6.12 C 111.65 171.18 115.75 166.19 120.3 160.64 Z" stroke-linecap="round"/>
</g>
		<g transform="matrix(1 0 0 1 -207.867 -163.529)" id="Layer_1">
<path style="stroke: none; stroke-width: 1; stroke-dasharray: none; stroke-linecap: butt; stroke-dashoffset: 0; stroke-linejoin: miter; stroke-miterlimit: 4; is-custom-font: none; font-file-url: none; fill: rgb(0,0,0); fill-rule: nonzero; opacity: 1;" transform=" translate(-48.608, -92.811)" d="M 32.89 100.9 c 4.08 0.16 7.67 0.16 11.27 0.48 c 11.18 1 18.49 -3.19 20 -11.61 c 0.73 -4.21 -0.88 -5.62 -6.17 -5.41 a 10.58 10.58 0 0 1 -2.17 0.09 C 47.11 83 42.39 86.13 39.34 91.7 C 37.51 95 34.91 98.06 32.89 100.9 Z" stroke-linecap="round"/>
</g>
		<g transform="matrix(1 0 0 1 -136.8305 -14.4981)" id="Layer_1">
<path style="stroke: none; stroke-width: 1; stroke-dasharray: none; stroke-linecap: butt; stroke-dashoffset: 0; stroke-linejoin: miter; stroke-miterlimit: 4; is-custom-font: none; font-file-url: none; fill: rgb(0,0,0); fill-rule: nonzero; opacity: 1;" transform=" translate(-119.6444, -241.8418)" d="M 140 230.47 c -8 -0.18 -14.79 -0.49 -21.7 -0.45 s -18.37 11.77 -19 19.26 c -0.1 1.13 0.49 3 1.09 3 c 6.64 -0.27 12.55 4.3 20.09 -1.82 a 71.13 71.13 0 0 0 5.52 -5.59 C 130.5 240.25 135 235.61 140 230.47 Z" stroke-linecap="round"/>
</g>
		<g transform="matrix(1 0 0 1 -214.7775 -86.5613)" id="Layer_1">
<path style="stroke: none; stroke-width: 1; stroke-dasharray: none; stroke-linecap: butt; stroke-dashoffset: 0; stroke-linejoin: miter; stroke-miterlimit: 4; is-custom-font: none; font-file-url: none; fill: rgb(0,0,0); fill-rule: nonzero; opacity: 1;" transform=" translate(-41.6975, -169.7787)" d="M 24.8 159.36 c 7.05 -0.4 13.65 -1 20.15 -1.05 c 2.4 0 5.45 0.19 6.62 1.75 a 61.14 61.14 0 0 1 7 13.14 c 0.29 0.7 -2 3.93 -3.52 4.92 c -7.73 5 -16.9 3.79 -21.35 -2.1 c -2.31 -3.06 -4.37 -5.94 -4.67 -10.51 C 28.9 163.25 26.55 161.75 24.8 159.36 Z" stroke-linecap="round"/>
</g>
		<g transform="matrix(1 0 0 1 -200.9017 64.311)" id="Layer_1">
<path style="stroke: none; stroke-width: 1; stroke-dasharray: none; stroke-linecap: butt; stroke-dashoffset: 0; stroke-linejoin: miter; stroke-miterlimit: 4; is-custom-font: none; font-file-url: none; fill: rgb(0,0,0); fill-rule: nonzero; opacity: 1;" transform=" translate(-55.5733, -320.651)" d="M 39.88 328.74 c 4.07 0.16 7.67 0.15 11.27 0.48 c 11.17 1 18.49 -3.19 19.95 -11.61 c 0.73 -4.21 -0.87 -5.62 -6.16 -5.41 a 10.61 10.61 0 0 1 -2.17 0.09 c -8.67 -1.45 -13.39 1.68 -16.45 7.25 C 44.5 322.88 41.9 325.9 39.88 328.74 Z" stroke-linecap="round"/>
</g>
		<g transform="matrix(1 0 0 1 -137.8282 -180.5406)" id="Layer_1">
<path style="stroke: none; stroke-width: 1; stroke-dasharray: none; stroke-linecap: butt; stroke-dashoffset: 0; stroke-linejoin: miter; stroke-miterlimit: 4; is-custom-font: none; font-file-url: none; fill: rgb(0,0,0); fill-rule: nonzero; opacity: 1;" transform=" translate(-118.6469, -75.7994)" d="M 120.78 65.81 c 1.46 3.69 2.93 7.12 4.12 10.55 c 0.44 1.27 0.86 2.92 0.2 3.77 a 32.12 32.12 0 0 1 -6 5.61 c -0.33 0.25 -2.51 -0.51 -3.33 -1.17 c -4.13 -3.39 -5 -8.44 -2.59 -11.64 a 9.81 9.81 0 0 1 5 -4 C 119.36 68.54 119.77 67.08 120.78 65.81 Z" stroke-linecap="round"/>
</g>
		<g transform="matrix(1 0 0 1 -164.7301 -216.2686)" id="Layer_1">
<path style="stroke: none; stroke-width: 1; stroke-dasharray: none; stroke-linecap: butt; stroke-dashoffset: 0; stroke-linejoin: miter; stroke-miterlimit: 4; is-custom-font: none; font-file-url: none; fill: rgb(0,0,0); fill-rule: nonzero; opacity: 1;" transform=" translate(-91.745, -40.0714)" d="M 98.41 26.68 c -2.61 2.14 -4.83 4.12 -7.24 5.9 c -7.47 5.5 -9.64 12.25 -5.84 18.51 c 1.89 3.13 3.67 3.16 6.83 0.11 a 8.52 8.52 0 0 1 1.29 -1.26 c 6.17 -3.83 7.34 -8.46 6.11 -13.75 A 80.15 80.15 0 0 1 98.41 26.68 Z" stroke-linecap="round"/>
</g>
		<g transform="matrix(1 0 0 1 -197.4972 -67.2515)" id="Layer_1">
<path style="stroke: none; stroke-width: 1; stroke-dasharray: none; stroke-linecap: butt; stroke-dashoffset: 0; stroke-linejoin: miter; stroke-miterlimit: 4; is-custom-font: none; font-file-url: none; fill: rgb(0,0,0); fill-rule: nonzero; opacity: 1;" transform=" translate(-58.9778, -189.0885)" d="M 55.06 201.84 c 2.07 -2.33 3.81 -4.46 5.75 -6.43 c 6 -6.12 7.07 -12.47 2.79 -17.42 c -2.13 -2.47 -3.74 -2.2 -6.18 1 a 8.21 8.21 0 0 1 -1 1.33 c -5.06 4.42 -5.5 8.73 -3.68 13.23 A 71.47 71.47 0 0 1 55.06 201.84 Z" stroke-linecap="round"/>
</g>
		<g transform="matrix(1 0 0 1 -194.1283 -100.6415)" id="Layer_1">
<path style="stroke: none; stroke-width: 1; stroke-dasharray: none; stroke-linecap: butt; stroke-dashoffset: 0; stroke-linejoin: miter; stroke-miterlimit: 4; is-custom-font: none; font-file-url: none; fill: rgb(0,0,0); fill-rule: nonzero; opacity: 1;" transform=" translate(-62.3468, -155.6985)" d="M 61 137 c -2.23 5.59 -4.24 10.33 -6 15.26 s 3.18 17.94 8.12 21.48 c 0.75 0.54 2.2 0.9 2.34 0.46 c 1.57 -4.84 6.24 -7.17 4 -15.06 c -0.58 -2.08 -1.55 -4.16 -2.35 -6.23 C 65.15 147.77 63.18 142.65 61 137 Z" stroke-linecap="round"/>
</g>
		<g transform="matrix(1 0 0 1 -128.6484 85.7074)" id="Layer_1">
<path style="stroke: none; stroke-width: 1; stroke-dasharray: none; stroke-linecap: butt; stroke-dashoffset: 0; stroke-linejoin: miter; stroke-miterlimit: 4; is-custom-font: none; font-file-url: none; fill: rgb(0,0,0); fill-rule: nonzero; opacity: 1;" transform=" translate(-127.8267, -342.0475)" d="M 144.63 356.85 c -2.36 -4.72 -4.59 -8.79 -6.5 -13.06 c -5.95 -13.28 -14.48 -19 -23.42 -15.57 c -4.47 1.72 -4.82 4.39 -1.35 10.26 a 15.5 15.5 0 0 1 1.43 2.4 c 4 10.71 9.88 14.16 17.08 14.24 C 136.18 355.16 140.67 356.28 144.63 356.85 Z" stroke-linecap="round"/>
</g>
		<g transform="matrix(1 0 0 1 -166.2239 44.0084)" id="Layer_1">
<path style="stroke: none; stroke-width: 1; stroke-dasharray: none; stroke-linecap: butt; stroke-dashoffset: 0; stroke-linejoin: miter; stroke-miterlimit: 4; is-custom-font: none; font-file-url: none; fill: rgb(0,0,0); fill-rule: nonzero; opacity: 1;" transform=" translate(-90.2511, -300.3484)" d="M 98.9 292.75 c -2.38 0.38 -4.47 0.82 -6.59 1 c -6.57 0.63 -10.5 4.54 -10.7 10.77 c -0.11 3.12 0.93 3.94 4 3.14 a 5.86 5.86 0 0 1 1.26 -0.33 c 5.15 0 7.65 -2.83 9 -7.2 C 96.67 297.53 98 295 98.9 292.75 Z" stroke-linecap="round"/>
</g>
		<g transform="matrix(1 0 0 1 -141.795 -122.5612)" id="Layer_1">
<path style="stroke: none; stroke-width: 1; stroke-dasharray: none; stroke-linecap: butt; stroke-dashoffset: 0; stroke-linejoin: miter; stroke-miterlimit: 4; is-custom-font: none; font-file-url: none; fill: rgb(0,0,0); fill-rule: nonzero; opacity: 1;" transform=" translate(-114.68, -133.7788)" d="M 125.43 135.68 c -3.28 -2.66 -6.28 -5.23 -9.39 -7.55 c -1.14 -0.85 -2.69 -1.81 -3.81 -1.46 a 36.56 36.56 0 0 0 -8 3.91 c -0.39 0.24 -0.41 2.6 0 3.61 c 2 5.14 6.85 7.74 11.06 6.44 c 2.18 -0.68 4.19 -1.35 5.92 -3.46 C 122.09 136.13 123.75 136.22 125.43 135.68 Z" stroke-linecap="round"/>
</g>
		<g transform="matrix(1 0 0 1 -124.238 -155.3161)" id="Layer_1">
<path style="stroke: none; stroke-width: 1; stroke-dasharray: none; stroke-linecap: butt; stroke-dashoffset: 0; stroke-linejoin: miter; stroke-miterlimit: 4; is-custom-font: none; font-file-url: none; fill: rgb(0,0,0); fill-rule: nonzero; opacity: 1;" transform=" translate(-132.237, -101.0239)" d="M 145.43 93.37 c -5.2 0 -9.65 -0.18 -14.16 -0.09 S 119.4 101.13 119.05 106 c -0.06 0.74 0.34 2 0.73 2 c 4.33 -0.24 8.23 2.68 13.09 -1.38 a 46.13 46.13 0 0 0 3.55 -3.7 Z" stroke-linecap="round"/>
</g>
		<g transform="matrix(1 0 0 1 -173.1836 -154.8431)" id="Layer_1">
<path style="stroke: none; stroke-width: 1; stroke-dasharray: none; stroke-linecap: butt; stroke-dashoffset: 0; stroke-linejoin: miter; stroke-miterlimit: 4; is-custom-font: none; font-file-url: none; fill: rgb(0,0,0); fill-rule: nonzero; opacity: 1;" transform=" translate(-83.2913, -101.4969)" d="M 89.9 91.93 c -0.28 2.65 -0.61 5 -0.74 7.32 c -0.39 7.31 -3.78 11.64 -9.36 11.81 c -2.78 0.08 -3.54 -1.09 -2.91 -4.49 a 7.71 7.71 0 0 0 0.26 -1.39 c -0.13 -5.74 2.33 -8.49 6.21 -9.94 A 62.4 62.4 0 0 0 89.9 91.93 Z" stroke-linecap="round"/>
</g>
</g>
</g>
<g transform="matrix(-1.0564 0 0 -1.0564 744.5059 242.6128)" id="666396">
<g style="" vector-effect="non-scaling-stroke">
		<g transform="matrix(1 0 0 1 8.225 145.8391)" id="Layer_1">
<path style="stroke: none; stroke-width: 1; stroke-dasharray: none; stroke-linecap: butt; stroke-dashoffset: 0; stroke-linejoin: miter; stroke-miterlimit: 4; is-custom-font: none; font-file-url: none; fill: rgb(0,0,0); fill-rule: nonzero; opacity: 1;" transform=" translate(-264.7, -402.1791)" d="M 183.22 398.72 c 21.44 -6.11 45.36 -4.25 66.26 3.65 c 7 2.51 13.76 5.3 20.58 7.34 c 27.6 9 58.49 -1.83 76.12 -24.92 c -4.85 10.06 -13.14 18.63 -22.65 24.58 a 66.66 66.66 0 0 1 -38.45 10.13 c -13.27 -0.5 -26 -6.16 -37.94 -10.94 a 136.39 136.39 0 0 0 -63.92 -9.84 Z" stroke-linecap="round"/>
</g>
		<g transform="matrix(1 0 0 1 111.5 151.9134)" id="Layer_1">
<path style="stroke: none; stroke-width: 1; stroke-dasharray: none; stroke-linecap: butt; stroke-dashoffset: 0; stroke-linejoin: miter; stroke-miterlimit: 4; is-custom-font: none; font-file-url: none; fill: rgb(0,0,0); fill-rule: nonzero; opacity: 1;" transform=" translate(-367.975, -408.2534)" d="M 268.61 414.67 C 328.26 432.1 385.36 379.1 445 398.78 a 62.2 62.2 0 0 1 22.34 13 a 72.24 72.24 0 0 0 -23.28 -9.7 c -42.62 -9.71 -82.76 14.18 -124.49 19.15 c -17.12 2.06 -35.27 1.14 -50.95 -6.56 Z" stroke-linecap="round"/>
</g>
		<g transform="matrix(1 0 0 1 134.99 172.4068)" id="Layer_1">
<path style="stroke: none; stroke-width: 1; stroke-dasharray: none; stroke-linecap: butt; stroke-dashoffset: 0; stroke-linejoin: miter; stroke-miterlimit: 4; is-custom-font: none; font-file-url: none; fill: rgb(0,0,0); fill-rule: nonzero; opacity: 1;" transform=" translate(-391.465, -428.7468)" d="M 350.4 412.51 c 15.29 -3 31.88 1.94 43.87 11.87 c 6 5 11 10.51 17.26 14.16 a 51 51 0 0 0 21 6.85 A 38.81 38.81 0 0 1 409.68 442 c -7.09 -3.27 -12.74 -9 -18.58 -13.76 c -11.47 -9.51 -25.74 -14.64 -40.7 -15.74 Z" stroke-linecap="round"/>
</g>
		<g transform="matrix(1 0 0 1 -99.115 150.5618)" id="Layer_1">
<path style="stroke: none; stroke-width: 1; stroke-dasharray: none; stroke-linecap: butt; stroke-dashoffset: 0; stroke-linejoin: miter; stroke-miterlimit: 4; is-custom-font: none; font-file-url: none; fill: rgb(0,0,0); fill-rule: nonzero; opacity: 1;" transform=" translate(-157.36, -406.9018)" d="M 58 413.33 c 59.65 17.42 116.75 -35.58 176.38 -15.9 a 62.2 62.2 0 0 1 22.34 13 a 72.46 72.46 0 0 0 -23.28 -9.7 c -42.62 -9.71 -82.76 14.18 -124.49 19.15 C 91.78 421.94 73.63 421 58 413.33 Z" stroke-linecap="round"/>
</g>
		<g transform="matrix(1 0 0 1 -142.825 152.745)" id="Layer_1">
<path style="stroke: none; stroke-width: 1; stroke-dasharray: none; stroke-linecap: butt; stroke-dashoffset: 0; stroke-linejoin: miter; stroke-miterlimit: 4; is-custom-font: none; font-file-url: none; fill: rgb(0,0,0); fill-rule: nonzero; opacity: 1;" transform=" translate(-113.65, -409.085)" d="M 193 430.36 c -7.56 -13.1 -23.56 -17.9 -37.89 -17.76 c -22.39 0.49 -43.54 11.61 -66.19 10 c -22.35 -1.29 -46 -13.18 -54.62 -34.79 C 45.76 409.39 71 419.57 94.51 418.92 c 18.61 -0.68 36.22 -8.18 54.86 -9.36 c 16.51 -0.95 36.32 4.53 43.58 20.8 Z" stroke-linecap="round"/>
</g>
		<g transform="matrix(1 0 0 1 -176.4356 -0.8)" id="Layer_1">
<path style="stroke: none; stroke-width: 1; stroke-dasharray: none; stroke-linecap: butt; stroke-dashoffset: 0; stroke-linejoin: miter; stroke-miterlimit: 4; is-custom-font: none; font-file-url: none; fill: rgb(0,0,0); fill-rule: nonzero; opacity: 1;" transform=" translate(-80.0394, -255.54)" d="M 80.47 336.78 c -6.72 -21.26 -5.56 -45.22 1.72 -66.34 c 2.3 -7.07 4.9 -13.91 6.74 -20.79 c 8.21 -27.84 -3.54 -58.41 -27.13 -75.35 c 10.19 4.55 19 12.58 25.23 21.91 a 66.66 66.66 0 0 1 11.24 38.14 c -0.11 13.28 -5.4 26.16 -9.82 38.25 a 136.39 136.39 0 0 0 -8 64.18 Z" stroke-linecap="round"/>
</g>
		<g transform="matrix(1 0 0 1 -171.6326 -104.64)" id="Layer_1">
<path style="stroke: none; stroke-width: 1; stroke-dasharray: none; stroke-linecap: butt; stroke-dashoffset: 0; stroke-linejoin: miter; stroke-miterlimit: 4; is-custom-font: none; font-file-url: none; fill: rgb(0,0,0); fill-rule: nonzero; opacity: 1;" transform=" translate(-84.8424, -151.7)" d="M 93.93 251 c 15.68 -60.14 -39 -115.67 -21 -175.84 A 62.27 62.27 0 0 1 85.24 52.4 a 72.58 72.58 0 0 0 -9 23.56 C 67.77 118.84 92.81 158.27 99 199.84 c 2.56 17 2.17 35.22 -5.07 51.12 Z" stroke-linecap="round"/>
</g>
		<g transform="matrix(1 0 0 1 -152.1017 -128.58)" id="Layer_1">
<path style="stroke: none; stroke-width: 1; stroke-dasharray: none; stroke-linecap: butt; stroke-dashoffset: 0; stroke-linejoin: miter; stroke-miterlimit: 4; is-custom-font: none; font-file-url: none; fill: rgb(0,0,0); fill-rule: nonzero; opacity: 1;" transform=" translate(-104.3734, -127.76)" d="M 89.38 169.27 c -3.43 -15.19 1 -31.93 10.59 -44.2 c 4.79 -6.19 10.19 -11.31 13.65 -17.66 a 51.06 51.06 0 0 0 6.24 -21.19 a 38.71 38.71 0 0 1 -2.72 22.93 c -3 7.19 -8.58 13 -13.21 19 c -9.17 11.74 -13.88 26.16 -14.55 41.15 Z" stroke-linecap="round"/>
</g>
		<g transform="matrix(1 0 0 1 -166.8513 105.945)" id="Layer_1">
<path style="stroke: none; stroke-width: 1; stroke-dasharray: none; stroke-linecap: butt; stroke-dashoffset: 0; stroke-linejoin: miter; stroke-miterlimit: 4; is-custom-font: none; font-file-url: none; fill: rgb(0,0,0); fill-rule: nonzero; opacity: 1;" transform=" translate(-89.6237, -362.285)" d="M 98.73 461.57 c 15.67 -60.14 -39 -115.67 -21 -175.84 A 62.44 62.44 0 0 1 90 263 a 72.35 72.35 0 0 0 -9 23.56 c -8.47 42.88 16.58 82.31 22.77 123.88 c 2.55 17.05 2.16 35.22 -5.07 51.12 Z" stroke-linecap="round"/>
</g>
		<g transform="matrix(1 0 0 1 -163.565 149.725)" id="Layer_1">
<path style="stroke: none; stroke-width: 1; stroke-dasharray: none; stroke-linecap: butt; stroke-dashoffset: 0; stroke-linejoin: miter; stroke-miterlimit: 4; is-custom-font: none; font-file-url: none; fill: rgb(0,0,0); fill-rule: nonzero; opacity: 1;" transform=" translate(-92.91, -406.065)" d="M 111.82 326.13 c -12.88 7.94 -17.21 24.07 -16.65 38.39 c 1.14 22.37 12.87 43.18 12 65.87 C 106.51 452.77 95.31 476.76 74 486 c 21.18 -12.13 30.62 -37.67 29.28 -61.14 c -1.22 -18.58 -9.23 -36 -11 -54.56 c -1.44 -16.47 3.47 -36.44 19.52 -44.17 Z" stroke-linecap="round"/>
</g>
		<g transform="matrix(1 0 0 1 -30.1874 109.669)" id="Layer_1">
<path style="stroke: none; stroke-width: 1; stroke-dasharray: none; stroke-linecap: butt; stroke-dashoffset: 0; stroke-linejoin: miter; stroke-miterlimit: 4; is-custom-font: none; font-file-url: none; fill: rgb(0,0,0); fill-rule: nonzero; opacity: 1;" transform=" translate(-226.2877, -366.009)" d="M 241.87 340.22 c -0.21 6.91 -0.66 13 -0.54 19.12 c 0.36 19 -7.62 30.88 -22 32.35 c -7.2 0.73 -9.39 -2.16 -8.4 -11.08 a 17.7 17.7 0 0 0 0.41 -3.66 c -1.41 -14.84 4.45 -22.44 14.24 -26.93 C 231.4 347.33 236.82 343.3 241.87 340.22 Z" stroke-linecap="round"/>
</g>
		<g transform="matrix(1 0 0 1 -43.2706 193.7139)" id="Layer_1">
<path style="stroke: none; stroke-width: 1; stroke-dasharray: none; stroke-linecap: butt; stroke-dashoffset: 0; stroke-linejoin: miter; stroke-miterlimit: 4; is-custom-font: none; font-file-url: none; fill: rgb(0,0,0); fill-rule: nonzero; opacity: 1;" transform=" translate(-213.2044, -450.0539)" d="M 232.15 473.1 c -10 -4.07 -19.53 -7.62 -28.58 -11.75 c -3.34 -1.53 -7.41 -3.83 -8 -6.77 c -1.46 -7.26 -1.48 -15.05 -1.11 -22.77 c 0.06 -1.16 5.35 -4.13 8.11 -4.51 c 14 -1.92 25.86 5.84 28.15 16.89 c 1.19 5.75 2.16 11.09 -0.41 17.61 C 229 465 231.29 468.64 232.15 473.1 Z" stroke-linecap="round"/>
</g>
		<g transform="matrix(1 0 0 1 196.391 118.9642)" id="Layer_1">
<path style="stroke: none; stroke-width: 1; stroke-dasharray: none; stroke-linecap: butt; stroke-dashoffset: 0; stroke-linejoin: miter; stroke-miterlimit: 4; is-custom-font: none; font-file-url: none; fill: rgb(0,0,0); fill-rule: nonzero; opacity: 1;" transform=" translate(-452.866, -375.3042)" d="M 467.68 357.33 c -1.49 7.82 -2.61 14.56 -4.1 21.31 s -15.34 15.5 -22.81 14.57 c -1.12 -0.14 -2.85 -1.11 -2.71 -1.69 c 1.66 -6.44 -1.57 -13.17 6 -19.26 a 70.32 70.32 0 0 1 6.61 -4.24 Z" stroke-linecap="round"/>
</g>
		<g transform="matrix(1 0 0 1 -102.155 121.93)" id="Layer_1">
<path style="stroke: none; stroke-width: 1; stroke-dasharray: none; stroke-linecap: butt; stroke-dashoffset: 0; stroke-linejoin: miter; stroke-miterlimit: 4; is-custom-font: none; font-file-url: none; fill: rgb(0,0,0); fill-rule: nonzero; opacity: 1;" transform=" translate(-154.32, -378.27)" d="M 154.32 378.27" stroke-linecap="round"/>
</g>
		<g transform="matrix(1 0 0 1 80.5623 178.0379)" id="Layer_1">
<path style="stroke: none; stroke-width: 1; stroke-dasharray: none; stroke-linecap: butt; stroke-dashoffset: 0; stroke-linejoin: miter; stroke-miterlimit: 4; is-custom-font: none; font-file-url: none; fill: rgb(0,0,0); fill-rule: nonzero; opacity: 1;" transform=" translate(-337.0373, -434.3779)" d="M 358.12 443.66 c -7.92 0.85 -14.7 1.72 -21.58 2.25 S 317.25 435.71 316 428.3 c -0.19 -1.12 0.24 -3.06 0.84 -3.09 c 6.64 -0.28 12.15 -5.32 20.17 0.16 a 69.17 69.17 0 0 1 6 5.1 Z" stroke-linecap="round"/>
</g>
		<g transform="matrix(1 0 0 1 171.4972 117.539)" id="Layer_1">
<path style="stroke: none; stroke-width: 1; stroke-dasharray: none; stroke-linecap: butt; stroke-dashoffset: 0; stroke-linejoin: miter; stroke-miterlimit: 4; is-custom-font: none; font-file-url: none; fill: rgb(0,0,0); fill-rule: nonzero; opacity: 1;" transform=" translate(-427.9722, -373.879)" d="M 420.39 358 c -0.29 4.07 -0.39 7.67 -0.82 11.25 c -1.33 11.15 2.65 18.58 11 20.29 c 4.18 0.85 5.64 -0.71 5.58 -6 a 11.25 11.25 0 0 1 0 -2.17 c 1.7 -8.62 -1.29 -13.43 -6.77 -16.64 C 426.11 362.82 423.17 360.14 420.39 358 Z" stroke-linecap="round"/>
</g>
		<g transform="matrix(1 0 0 1 20.6418 184.3551)" id="Layer_1">
<path style="stroke: none; stroke-width: 1; stroke-dasharray: none; stroke-linecap: butt; stroke-dashoffset: 0; stroke-linejoin: miter; stroke-miterlimit: 4; is-custom-font: none; font-file-url: none; fill: rgb(0,0,0); fill-rule: nonzero; opacity: 1;" transform=" translate(-277.1168, -440.6951)" d="M 287.75 461.33 c 0.41 -8 0.92 -14.77 1.08 -21.67 S 277.6 421 270.13 420.08 c -1.13 -0.13 -3 0.4 -3 1 c 0.07 6.65 -4.66 12.42 1.24 20.13 a 68.82 68.82 0 0 0 5.42 5.69 Z" stroke-linecap="round"/>
</g>
		<g transform="matrix(1 0 0 1 94.702 108.5963)" id="Layer_1">
<path style="stroke: none; stroke-width: 1; stroke-dasharray: none; stroke-linecap: butt; stroke-dashoffset: 0; stroke-linejoin: miter; stroke-miterlimit: 4; is-custom-font: none; font-file-url: none; fill: rgb(0,0,0); fill-rule: nonzero; opacity: 1;" transform=" translate(-351.177, -364.9363)" d="M 362.19 348.24 c 0.19 7.06 0.55 13.68 0.46 20.17 c 0 2.4 -0.35 5.44 -1.95 6.57 a 61 61 0 0 1 -13.33 6.63 c -0.71 0.28 -3.87 -2.11 -4.82 -3.66 c -4.83 -7.87 -3.29 -17 2.72 -21.27 c 3.12 -2.22 6.07 -4.2 10.64 -4.37 C 358.18 352.22 359.75 349.92 362.19 348.24 Z" stroke-linecap="round"/>
</g>
		<g transform="matrix(1 0 0 1 -56.4404 117.909)" id="Layer_1">
<path style="stroke: none; stroke-width: 1; stroke-dasharray: none; stroke-linecap: butt; stroke-dashoffset: 0; stroke-linejoin: miter; stroke-miterlimit: 4; is-custom-font: none; font-file-url: none; fill: rgb(0,0,0); fill-rule: nonzero; opacity: 1;" transform=" translate(-200.0345, -374.249)" d="M 192.44 358.37 c -0.28 4.07 -0.38 7.67 -0.81 11.25 c -1.33 11.15 2.65 18.58 11 20.29 c 4.18 0.85 5.64 -0.71 5.58 -6 a 10.51 10.51 0 0 1 0 -2.17 c 1.71 -8.62 -1.28 -13.43 -6.77 -16.64 C 198.16 363.16 195.22 360.48 192.44 358.37 Z" stroke-linecap="round"/>
</g>
		<g transform="matrix(1 0 0 1 186.4671 188.0782)" id="Layer_1">
<path style="stroke: none; stroke-width: 1; stroke-dasharray: none; stroke-linecap: butt; stroke-dashoffset: 0; stroke-linejoin: miter; stroke-miterlimit: 4; is-custom-font: none; font-file-url: none; fill: rgb(0,0,0); fill-rule: nonzero; opacity: 1;" transform=" translate(-442.942, -444.4182)" d="M 452.9 446.9 c -3.73 1.36 -7.2 2.73 -10.67 3.82 c -1.28 0.4 -3 0.77 -3.77 0.09 a 31.93 31.93 0 0 1 -5.43 -6.15 c -0.25 -0.34 0.57 -2.5 1.27 -3.29 c 3.5 -4 8.58 -4.81 11.7 -2.26 a 9.81 9.81 0 0 1 3.84 5.07 C 450.21 445.41 451.66 445.86 452.9 446.9 Z" stroke-linecap="round"/>
</g>
		<g transform="matrix(1 0 0 1 222.9477 162.2277)" id="Layer_1">
<path style="stroke: none; stroke-width: 1; stroke-dasharray: none; stroke-linecap: butt; stroke-dashoffset: 0; stroke-linejoin: miter; stroke-miterlimit: 4; is-custom-font: none; font-file-url: none; fill: rgb(0,0,0); fill-rule: nonzero; opacity: 1;" transform=" translate(-479.4226, -418.5676)" d="M 492.66 425.69 c -2.06 -2.67 -4 -4.95 -5.68 -7.41 c -5.28 -7.63 -12 -10 -18.34 -6.38 c -3.18 1.8 -3.26 3.58 -0.3 6.82 a 9 9 0 0 1 1.22 1.33 c 3.65 6.28 8.24 7.58 13.56 6.51 A 83.27 83.27 0 0 1 492.66 425.69 Z" stroke-linecap="round"/>
</g>
		<g transform="matrix(1 0 0 1 75.0238 125.2911)" id="Layer_1">
<path style="stroke: none; stroke-width: 1; stroke-dasharray: none; stroke-linecap: butt; stroke-dashoffset: 0; stroke-linejoin: miter; stroke-miterlimit: 4; is-custom-font: none; font-file-url: none; fill: rgb(0,0,0); fill-rule: nonzero; opacity: 1;" transform=" translate(-331.4988, -381.6311)" d="M 318.84 377.25 c 2.27 2.14 4.34 3.94 6.26 5.93 c 5.94 6.19 12.26 7.43 17.33 3.31 c 2.53 -2.06 2.31 -3.68 -0.85 -6.21 a 8.27 8.27 0 0 1 -1.29 -1 c -4.28 -5.18 -8.57 -5.74 -13.12 -4.06 A 71.27 71.27 0 0 1 318.84 377.25 Z" stroke-linecap="round"/>
</g>
		<g transform="matrix(1 0 0 1 108.2706 129.4174)" id="Layer_1">
<path style="stroke: none; stroke-width: 1; stroke-dasharray: none; stroke-linecap: butt; stroke-dashoffset: 0; stroke-linejoin: miter; stroke-miterlimit: 4; is-custom-font: none; font-file-url: none; fill: rgb(0,0,0); fill-rule: nonzero; opacity: 1;" transform=" translate(-364.7457, -385.7573)" d="M 383.51 385.07 c -5.54 -2.39 -10.21 -4.54 -15.09 -6.47 s -18 2.65 -21.71 7.49 c -0.56 0.73 -1 2.17 -0.53 2.32 c 4.8 1.71 7 6.45 14.94 4.49 c 2.1 -0.52 4.2 -1.43 6.3 -2.17 Z" stroke-linecap="round"/>
</g>
		<g transform="matrix(1 0 0 1 -80.0219 189.4802)" id="Layer_1">
<path style="stroke: none; stroke-width: 1; stroke-dasharray: none; stroke-linecap: butt; stroke-dashoffset: 0; stroke-linejoin: miter; stroke-miterlimit: 4; is-custom-font: none; font-file-url: none; fill: rgb(0,0,0); fill-rule: nonzero; opacity: 1;" transform=" translate(-176.4531, -445.8203)" d="M 161.29 462.26 c 4.78 -2.22 8.91 -4.33 13.24 -6.12 c 13.44 -5.56 19.43 -13.91 16.25 -22.95 c -1.59 -4.52 -4.25 -4.95 -10.22 -1.65 a 15.52 15.52 0 0 1 -2.45 1.36 c -10.81 3.66 -14.43 9.46 -14.72 16.66 C 163.22 453.87 162 458.32 161.29 462.26 Z" stroke-linecap="round"/>
</g>
		<g transform="matrix(1 0 0 1 -37.1778 153.264)" id="Layer_1">
<path style="stroke: none; stroke-width: 1; stroke-dasharray: none; stroke-linecap: butt; stroke-dashoffset: 0; stroke-linejoin: miter; stroke-miterlimit: 4; is-custom-font: none; font-file-url: none; fill: rgb(0,0,0); fill-rule: nonzero; opacity: 1;" transform=" translate(-219.2973, -409.6039)" d="M 226.69 418.42 c -0.31 -2.39 -0.69 -4.49 -0.83 -6.61 c -0.44 -6.59 -4.22 -10.63 -10.45 -11 c -3.11 -0.19 -4 0.82 -3.26 3.91 a 4.79 4.79 0 0 1 0.29 1.26 c -0.14 5.15 2.61 7.73 6.95 9.21 C 222 416.05 224.43 417.4 226.69 418.42 Z" stroke-linecap="round"/>
</g>
		<g transform="matrix(1 0 0 1 -210.0341 38.4535)" id="Layer_1">
<path style="stroke: none; stroke-width: 1; stroke-dasharray: none; stroke-linecap: butt; stroke-dashoffset: 0; stroke-linejoin: miter; stroke-miterlimit: 4; is-custom-font: none; font-file-url: none; fill: rgb(0,0,0); fill-rule: nonzero; opacity: 1;" transform=" translate(-46.4409, -294.7935)" d="M 20.29 279.86 c 6.92 0 13 0.28 19.13 0 c 19 -0.91 31.09 6.72 33 21.09 c 0.94 7.18 -1.88 9.45 -10.83 8.72 a 18.32 18.32 0 0 0 -3.67 -0.31 c -14.78 1.85 -22.56 -3.79 -27.33 -13.45 C 27.7 290.11 23.52 284.81 20.29 279.86 Z" stroke-linecap="round"/>
</g>
		<g transform="matrix(1 0 0 1 -125.7546 48.8219)" id="Layer_1">
<path style="stroke: none; stroke-width: 1; stroke-dasharray: none; stroke-linecap: butt; stroke-dashoffset: 0; stroke-linejoin: miter; stroke-miterlimit: 4; is-custom-font: none; font-file-url: none; fill: rgb(0,0,0); fill-rule: nonzero; opacity: 1;" transform=" translate(-130.7204, -305.1619)" d="M 153.39 285.7 c -3.77 10.14 -7 19.74 -10.91 28.91 c -1.42 3.38 -3.61 7.52 -6.53 8.2 c -7.22 1.68 -15 1.92 -22.72 1.78 c -1.17 0 -4.29 -5.23 -4.75 -8 c -2.33 -13.93 5.08 -26 16.06 -28.63 c 5.71 -1.36 11 -2.48 17.62 -0.1 C 145.42 289.06 149 286.69 153.39 285.7 Z" stroke-linecap="round"/>
</g>
		<g transform="matrix(1 0 0 1 -207.3206 -188.3866)" id="Layer_1">
<path style="stroke: none; stroke-width: 1; stroke-dasharray: none; stroke-linecap: butt; stroke-dashoffset: 0; stroke-linejoin: miter; stroke-miterlimit: 4; is-custom-font: none; font-file-url: none; fill: rgb(0,0,0); fill-rule: nonzero; opacity: 1;" transform=" translate(-49.1544, -67.9534)" d="M 30.81 53.65 c 7.86 1.26 14.63 2.18 21.41 3.47 S 68.17 72 67.46 79.49 c -0.1 1.13 -1 2.89 -1.61 2.76 c -6.48 -1.46 -13.12 2 -19.43 -5.42 A 68.55 68.55 0 0 1 42 70.34 C 38.39 65 34.8 59.61 30.81 53.65 Z" stroke-linecap="round"/>
</g>
		<g transform="matrix(1 0 0 1 -195.605 109.92)" id="Layer_1">
<path style="stroke: none; stroke-width: 1; stroke-dasharray: none; stroke-linecap: butt; stroke-dashoffset: 0; stroke-linejoin: miter; stroke-miterlimit: 4; is-custom-font: none; font-file-url: none; fill: rgb(0,0,0); fill-rule: nonzero; opacity: 1;" transform=" translate(-60.87, -366.26)" d="M 60.87 366.26" stroke-linecap="round"/>
</g>
		<g transform="matrix(1 0 0 1 -144.7077 -74.383)" id="Layer_1">
<path style="stroke: none; stroke-width: 1; stroke-dasharray: none; stroke-linecap: butt; stroke-dashoffset: 0; stroke-linejoin: miter; stroke-miterlimit: 4; is-custom-font: none; font-file-url: none; fill: rgb(0,0,0); fill-rule: nonzero; opacity: 1;" transform=" translate(-111.7673, -181.957)" d="M 120.3 160.64 c 1.07 7.9 2.15 14.64 2.88 21.51 s -9.64 19.57 -17 21.06 c -1.11 0.22 -3.06 -0.15 -3.11 -0.75 c -0.47 -6.63 -5.67 -12 -0.43 -20.16 a 68.76 68.76 0 0 1 4.93 -6.12 C 111.65 171.18 115.75 166.19 120.3 160.64 Z" stroke-linecap="round"/>
</g>
		<g transform="matrix(1 0 0 1 -207.867 -163.529)" id="Layer_1">
<path style="stroke: none; stroke-width: 1; stroke-dasharray: none; stroke-linecap: butt; stroke-dashoffset: 0; stroke-linejoin: miter; stroke-miterlimit: 4; is-custom-font: none; font-file-url: none; fill: rgb(0,0,0); fill-rule: nonzero; opacity: 1;" transform=" translate(-48.608, -92.811)" d="M 32.89 100.9 c 4.08 0.16 7.67 0.16 11.27 0.48 c 11.18 1 18.49 -3.19 20 -11.61 c 0.73 -4.21 -0.88 -5.62 -6.17 -5.41 a 10.58 10.58 0 0 1 -2.17 0.09 C 47.11 83 42.39 86.13 39.34 91.7 C 37.51 95 34.91 98.06 32.89 100.9 Z" stroke-linecap="round"/>
</g>
		<g transform="matrix(1 0 0 1 -136.8305 -14.4981)" id="Layer_1">
<path style="stroke: none; stroke-width: 1; stroke-dasharray: none; stroke-linecap: butt; stroke-dashoffset: 0; stroke-linejoin: miter; stroke-miterlimit: 4; is-custom-font: none; font-file-url: none; fill: rgb(0,0,0); fill-rule: nonzero; opacity: 1;" transform=" translate(-119.6444, -241.8418)" d="M 140 230.47 c -8 -0.18 -14.79 -0.49 -21.7 -0.45 s -18.37 11.77 -19 19.26 c -0.1 1.13 0.49 3 1.09 3 c 6.64 -0.27 12.55 4.3 20.09 -1.82 a 71.13 71.13 0 0 0 5.52 -5.59 C 130.5 240.25 135 235.61 140 230.47 Z" stroke-linecap="round"/>
</g>
		<g transform="matrix(1 0 0 1 -214.7775 -86.5613)" id="Layer_1">
<path style="stroke: none; stroke-width: 1; stroke-dasharray: none; stroke-linecap: butt; stroke-dashoffset: 0; stroke-linejoin: miter; stroke-miterlimit: 4; is-custom-font: none; font-file-url: none; fill: rgb(0,0,0); fill-rule: nonzero; opacity: 1;" transform=" translate(-41.6975, -169.7787)" d="M 24.8 159.36 c 7.05 -0.4 13.65 -1 20.15 -1.05 c 2.4 0 5.45 0.19 6.62 1.75 a 61.14 61.14 0 0 1 7 13.14 c 0.29 0.7 -2 3.93 -3.52 4.92 c -7.73 5 -16.9 3.79 -21.35 -2.1 c -2.31 -3.06 -4.37 -5.94 -4.67 -10.51 C 28.9 163.25 26.55 161.75 24.8 159.36 Z" stroke-linecap="round"/>
</g>
		<g transform="matrix(1 0 0 1 -200.9017 64.311)" id="Layer_1">
<path style="stroke: none; stroke-width: 1; stroke-dasharray: none; stroke-linecap: butt; stroke-dashoffset: 0; stroke-linejoin: miter; stroke-miterlimit: 4; is-custom-font: none; font-file-url: none; fill: rgb(0,0,0); fill-rule: nonzero; opacity: 1;" transform=" translate(-55.5733, -320.651)" d="M 39.88 328.74 c 4.07 0.16 7.67 0.15 11.27 0.48 c 11.17 1 18.49 -3.19 19.95 -11.61 c 0.73 -4.21 -0.87 -5.62 -6.16 -5.41 a 10.61 10.61 0 0 1 -2.17 0.09 c -8.67 -1.45 -13.39 1.68 -16.45 7.25 C 44.5 322.88 41.9 325.9 39.88 328.74 Z" stroke-linecap="round"/>
</g>
		<g transform="matrix(1 0 0 1 -137.8282 -180.5406)" id="Layer_1">
<path style="stroke: none; stroke-width: 1; stroke-dasharray: none; stroke-linecap: butt; stroke-dashoffset: 0; stroke-linejoin: miter; stroke-miterlimit: 4; is-custom-font: none; font-file-url: none; fill: rgb(0,0,0); fill-rule: nonzero; opacity: 1;" transform=" translate(-118.6469, -75.7994)" d="M 120.78 65.81 c 1.46 3.69 2.93 7.12 4.12 10.55 c 0.44 1.27 0.86 2.92 0.2 3.77 a 32.12 32.12 0 0 1 -6 5.61 c -0.33 0.25 -2.51 -0.51 -3.33 -1.17 c -4.13 -3.39 -5 -8.44 -2.59 -11.64 a 9.81 9.81 0 0 1 5 -4 C 119.36 68.54 119.77 67.08 120.78 65.81 Z" stroke-linecap="round"/>
</g>
		<g transform="matrix(1 0 0 1 -164.7301 -216.2686)" id="Layer_1">
<path style="stroke: none; stroke-width: 1; stroke-dasharray: none; stroke-linecap: butt; stroke-dashoffset: 0; stroke-linejoin: miter; stroke-miterlimit: 4; is-custom-font: none; font-file-url: none; fill: rgb(0,0,0); fill-rule: nonzero; opacity: 1;" transform=" translate(-91.745, -40.0714)" d="M 98.41 26.68 c -2.61 2.14 -4.83 4.12 -7.24 5.9 c -7.47 5.5 -9.64 12.25 -5.84 18.51 c 1.89 3.13 3.67 3.16 6.83 0.11 a 8.52 8.52 0 0 1 1.29 -1.26 c 6.17 -3.83 7.34 -8.46 6.11 -13.75 A 80.15 80.15 0 0 1 98.41 26.68 Z" stroke-linecap="round"/>
</g>
		<g transform="matrix(1 0 0 1 -197.4972 -67.2515)" id="Layer_1">
<path style="stroke: none; stroke-width: 1; stroke-dasharray: none; stroke-linecap: butt; stroke-dashoffset: 0; stroke-linejoin: miter; stroke-miterlimit: 4; is-custom-font: none; font-file-url: none; fill: rgb(0,0,0); fill-rule: nonzero; opacity: 1;" transform=" translate(-58.9778, -189.0885)" d="M 55.06 201.84 c 2.07 -2.33 3.81 -4.46 5.75 -6.43 c 6 -6.12 7.07 -12.47 2.79 -17.42 c -2.13 -2.47 -3.74 -2.2 -6.18 1 a 8.21 8.21 0 0 1 -1 1.33 c -5.06 4.42 -5.5 8.73 -3.68 13.23 A 71.47 71.47 0 0 1 55.06 201.84 Z" stroke-linecap="round"/>
</g>
		<g transform="matrix(1 0 0 1 -194.1283 -100.6415)" id="Layer_1">
<path style="stroke: none; stroke-width: 1; stroke-dasharray: none; stroke-linecap: butt; stroke-dashoffset: 0; stroke-linejoin: miter; stroke-miterlimit: 4; is-custom-font: none; font-file-url: none; fill: rgb(0,0,0); fill-rule: nonzero; opacity: 1;" transform=" translate(-62.3468, -155.6985)" d="M 61 137 c -2.23 5.59 -4.24 10.33 -6 15.26 s 3.18 17.94 8.12 21.48 c 0.75 0.54 2.2 0.9 2.34 0.46 c 1.57 -4.84 6.24 -7.17 4 -15.06 c -0.58 -2.08 -1.55 -4.16 -2.35 -6.23 C 65.15 147.77 63.18 142.65 61 137 Z" stroke-linecap="round"/>
</g>
		<g transform="matrix(1 0 0 1 -128.6484 85.7074)" id="Layer_1">
<path style="stroke: none; stroke-width: 1; stroke-dasharray: none; stroke-linecap: butt; stroke-dashoffset: 0; stroke-linejoin: miter; stroke-miterlimit: 4; is-custom-font: none; font-file-url: none; fill: rgb(0,0,0); fill-rule: nonzero; opacity: 1;" transform=" translate(-127.8267, -342.0475)" d="M 144.63 356.85 c -2.36 -4.72 -4.59 -8.79 -6.5 -13.06 c -5.95 -13.28 -14.48 -19 -23.42 -15.57 c -4.47 1.72 -4.82 4.39 -1.35 10.26 a 15.5 15.5 0 0 1 1.43 2.4 c 4 10.71 9.88 14.16 17.08 14.24 C 136.18 355.16 140.67 356.28 144.63 356.85 Z" stroke-linecap="round"/>
</g>
		<g transform="matrix(1 0 0 1 -166.2239 44.0084)" id="Layer_1">
<path style="stroke: none; stroke-width: 1; stroke-dasharray: none; stroke-linecap: butt; stroke-dashoffset: 0; stroke-linejoin: miter; stroke-miterlimit: 4; is-custom-font: none; font-file-url: none; fill: rgb(0,0,0); fill-rule: nonzero; opacity: 1;" transform=" translate(-90.2511, -300.3484)" d="M 98.9 292.75 c -2.38 0.38 -4.47 0.82 -6.59 1 c -6.57 0.63 -10.5 4.54 -10.7 10.77 c -0.11 3.12 0.93 3.94 4 3.14 a 5.86 5.86 0 0 1 1.26 -0.33 c 5.15 0 7.65 -2.83 9 -7.2 C 96.67 297.53 98 295 98.9 292.75 Z" stroke-linecap="round"/>
</g>
		<g transform="matrix(1 0 0 1 -141.795 -122.5612)" id="Layer_1">
<path style="stroke: none; stroke-width: 1; stroke-dasharray: none; stroke-linecap: butt; stroke-dashoffset: 0; stroke-linejoin: miter; stroke-miterlimit: 4; is-custom-font: none; font-file-url: none; fill: rgb(0,0,0); fill-rule: nonzero; opacity: 1;" transform=" translate(-114.68, -133.7788)" d="M 125.43 135.68 c -3.28 -2.66 -6.28 -5.23 -9.39 -7.55 c -1.14 -0.85 -2.69 -1.81 -3.81 -1.46 a 36.56 36.56 0 0 0 -8 3.91 c -0.39 0.24 -0.41 2.6 0 3.61 c 2 5.14 6.85 7.74 11.06 6.44 c 2.18 -0.68 4.19 -1.35 5.92 -3.46 C 122.09 136.13 123.75 136.22 125.43 135.68 Z" stroke-linecap="round"/>
</g>
		<g transform="matrix(1 0 0 1 -124.238 -155.3161)" id="Layer_1">
<path style="stroke: none; stroke-width: 1; stroke-dasharray: none; stroke-linecap: butt; stroke-dashoffset: 0; stroke-linejoin: miter; stroke-miterlimit: 4; is-custom-font: none; font-file-url: none; fill: rgb(0,0,0); fill-rule: nonzero; opacity: 1;" transform=" translate(-132.237, -101.0239)" d="M 145.43 93.37 c -5.2 0 -9.65 -0.18 -14.16 -0.09 S 119.4 101.13 119.05 106 c -0.06 0.74 0.34 2 0.73 2 c 4.33 -0.24 8.23 2.68 13.09 -1.38 a 46.13 46.13 0 0 0 3.55 -3.7 Z" stroke-linecap="round"/>
</g>
		<g transform="matrix(1 0 0 1 -173.1836 -154.8431)" id="Layer_1">
<path style="stroke: none; stroke-width: 1; stroke-dasharray: none; stroke-linecap: butt; stroke-dashoffset: 0; stroke-linejoin: miter; stroke-miterlimit: 4; is-custom-font: none; font-file-url: none; fill: rgb(0,0,0); fill-rule: nonzero; opacity: 1;" transform=" translate(-83.2913, -101.4969)" d="M 89.9 91.93 c -0.28 2.65 -0.61 5 -0.74 7.32 c -0.39 7.31 -3.78 11.64 -9.36 11.81 c -2.78 0.08 -3.54 -1.09 -2.91 -4.49 a 7.71 7.71 0 0 0 0.26 -1.39 c -0.13 -5.74 2.33 -8.49 6.21 -9.94 A 62.4 62.4 0 0 0 89.9 91.93 Z" stroke-linecap="round"/>
</g>
</g>
</g>
</svg>